<mxfile host="app.diagrams.net" agent="Mozilla/5.0 (Windows NT 10.0; Win64; x64) AppleWebKit/537.36 (KHTML, like Gecko) Chrome/132.0.0.0 Safari/537.36" version="26.0.11" pages="12">
  <diagram name="User Type" id="H7-W1Fx-3PqU2nWDfVsV">
    <mxGraphModel dx="1900" dy="557" grid="1" gridSize="10" guides="1" tooltips="1" connect="1" arrows="1" fold="1" page="1" pageScale="1" pageWidth="850" pageHeight="1100" math="0" shadow="0">
      <root>
        <mxCell id="0" />
        <mxCell id="1" parent="0" />
        <mxCell id="soVya1_GFJN7k5GcahZr-60" style="edgeStyle=orthogonalEdgeStyle;rounded=0;orthogonalLoop=1;jettySize=auto;html=1;exitX=0.5;exitY=0.5;exitDx=0;exitDy=0;exitPerimeter=0;entryX=0;entryY=0.5;entryDx=0;entryDy=0;" parent="1" source="soVya1_GFJN7k5GcahZr-1" target="soVya1_GFJN7k5GcahZr-11" edge="1">
          <mxGeometry relative="1" as="geometry" />
        </mxCell>
        <mxCell id="soVya1_GFJN7k5GcahZr-1" value="UNA" style="shape=umlActor;verticalLabelPosition=bottom;verticalAlign=top;html=1;" parent="1" vertex="1">
          <mxGeometry x="-310" y="616.25" width="30" height="60" as="geometry" />
        </mxCell>
        <mxCell id="soVya1_GFJN7k5GcahZr-61" style="edgeStyle=orthogonalEdgeStyle;rounded=0;orthogonalLoop=1;jettySize=auto;html=1;exitX=0.5;exitY=0.5;exitDx=0;exitDy=0;exitPerimeter=0;entryX=0;entryY=0.5;entryDx=0;entryDy=0;" parent="1" source="soVya1_GFJN7k5GcahZr-5" target="soVya1_GFJN7k5GcahZr-13" edge="1">
          <mxGeometry relative="1" as="geometry" />
        </mxCell>
        <mxCell id="soVya1_GFJN7k5GcahZr-62" style="edgeStyle=orthogonalEdgeStyle;rounded=0;orthogonalLoop=1;jettySize=auto;html=1;exitX=0.5;exitY=0.5;exitDx=0;exitDy=0;exitPerimeter=0;entryX=0;entryY=0.5;entryDx=0;entryDy=0;" parent="1" source="soVya1_GFJN7k5GcahZr-5" target="soVya1_GFJN7k5GcahZr-14" edge="1">
          <mxGeometry relative="1" as="geometry" />
        </mxCell>
        <mxCell id="soVya1_GFJN7k5GcahZr-63" style="edgeStyle=orthogonalEdgeStyle;rounded=0;orthogonalLoop=1;jettySize=auto;html=1;exitX=0.5;exitY=0.5;exitDx=0;exitDy=0;exitPerimeter=0;entryX=0;entryY=0.5;entryDx=0;entryDy=0;" parent="1" source="soVya1_GFJN7k5GcahZr-5" target="soVya1_GFJN7k5GcahZr-15" edge="1">
          <mxGeometry relative="1" as="geometry" />
        </mxCell>
        <mxCell id="soVya1_GFJN7k5GcahZr-5" value="UA" style="shape=umlActor;verticalLabelPosition=bottom;verticalAlign=top;html=1;" parent="1" vertex="1">
          <mxGeometry x="-310" y="841.25" width="30" height="60" as="geometry" />
        </mxCell>
        <mxCell id="soVya1_GFJN7k5GcahZr-66" style="edgeStyle=orthogonalEdgeStyle;rounded=0;orthogonalLoop=1;jettySize=auto;html=1;exitX=0.5;exitY=0.5;exitDx=0;exitDy=0;exitPerimeter=0;entryX=0;entryY=0.5;entryDx=0;entryDy=0;" parent="1" source="soVya1_GFJN7k5GcahZr-7" target="soVya1_GFJN7k5GcahZr-41" edge="1">
          <mxGeometry relative="1" as="geometry" />
        </mxCell>
        <mxCell id="soVya1_GFJN7k5GcahZr-68" style="edgeStyle=orthogonalEdgeStyle;rounded=0;orthogonalLoop=1;jettySize=auto;html=1;exitX=0.5;exitY=0.5;exitDx=0;exitDy=0;exitPerimeter=0;entryX=0;entryY=0.5;entryDx=0;entryDy=0;" parent="1" source="soVya1_GFJN7k5GcahZr-7" target="soVya1_GFJN7k5GcahZr-42" edge="1">
          <mxGeometry relative="1" as="geometry" />
        </mxCell>
        <mxCell id="soVya1_GFJN7k5GcahZr-70" style="edgeStyle=orthogonalEdgeStyle;rounded=0;orthogonalLoop=1;jettySize=auto;html=1;exitX=0.5;exitY=0.5;exitDx=0;exitDy=0;exitPerimeter=0;entryX=0;entryY=0.5;entryDx=0;entryDy=0;" parent="1" source="soVya1_GFJN7k5GcahZr-7" target="soVya1_GFJN7k5GcahZr-44" edge="1">
          <mxGeometry relative="1" as="geometry" />
        </mxCell>
        <mxCell id="soVya1_GFJN7k5GcahZr-7" value="ADMIN" style="shape=umlActor;verticalLabelPosition=bottom;verticalAlign=top;html=1;" parent="1" vertex="1">
          <mxGeometry x="130" y="687.5" width="30" height="60" as="geometry" />
        </mxCell>
        <mxCell id="soVya1_GFJN7k5GcahZr-11" value="Visualizzare un post" style="ellipse;whiteSpace=wrap;html=1;" parent="1" vertex="1">
          <mxGeometry x="-240" y="623.75" width="100" height="45" as="geometry" />
        </mxCell>
        <mxCell id="soVya1_GFJN7k5GcahZr-13" value="Visualizzare un post" style="ellipse;whiteSpace=wrap;html=1;" parent="1" vertex="1">
          <mxGeometry x="-240" y="788.75" width="100" height="45" as="geometry" />
        </mxCell>
        <mxCell id="soVya1_GFJN7k5GcahZr-14" value="Creare un post" style="ellipse;whiteSpace=wrap;html=1;" parent="1" vertex="1">
          <mxGeometry x="-240" y="848.75" width="100" height="45" as="geometry" />
        </mxCell>
        <mxCell id="soVya1_GFJN7k5GcahZr-64" style="edgeStyle=orthogonalEdgeStyle;rounded=0;orthogonalLoop=1;jettySize=auto;html=1;exitX=1;exitY=0.5;exitDx=0;exitDy=0;entryX=0;entryY=0.5;entryDx=0;entryDy=0;" parent="1" source="soVya1_GFJN7k5GcahZr-15" target="soVya1_GFJN7k5GcahZr-21" edge="1">
          <mxGeometry relative="1" as="geometry" />
        </mxCell>
        <mxCell id="soVya1_GFJN7k5GcahZr-15" value="Profilo" style="ellipse;whiteSpace=wrap;html=1;" parent="1" vertex="1">
          <mxGeometry x="-240" y="908.75" width="100" height="45" as="geometry" />
        </mxCell>
        <mxCell id="soVya1_GFJN7k5GcahZr-65" style="edgeStyle=orthogonalEdgeStyle;rounded=0;orthogonalLoop=1;jettySize=auto;html=1;exitX=1;exitY=0.5;exitDx=0;exitDy=0;entryX=0;entryY=0.5;entryDx=0;entryDy=0;" parent="1" source="soVya1_GFJN7k5GcahZr-21" target="soVya1_GFJN7k5GcahZr-22" edge="1">
          <mxGeometry relative="1" as="geometry" />
        </mxCell>
        <mxCell id="soVya1_GFJN7k5GcahZr-21" value="Cronologia post" style="ellipse;whiteSpace=wrap;html=1;" parent="1" vertex="1">
          <mxGeometry x="-110" y="908.75" width="100" height="45" as="geometry" />
        </mxCell>
        <mxCell id="soVya1_GFJN7k5GcahZr-22" value="Modifica / eliminazione post" style="ellipse;whiteSpace=wrap;html=1;" parent="1" vertex="1">
          <mxGeometry x="20" y="908.75" width="100" height="45" as="geometry" />
        </mxCell>
        <mxCell id="soVya1_GFJN7k5GcahZr-67" style="edgeStyle=orthogonalEdgeStyle;rounded=0;orthogonalLoop=1;jettySize=auto;html=1;exitX=1;exitY=0.5;exitDx=0;exitDy=0;entryX=0;entryY=0.5;entryDx=0;entryDy=0;" parent="1" source="soVya1_GFJN7k5GcahZr-41" target="soVya1_GFJN7k5GcahZr-45" edge="1">
          <mxGeometry relative="1" as="geometry" />
        </mxCell>
        <mxCell id="soVya1_GFJN7k5GcahZr-41" value="Visualizzare un post" style="ellipse;whiteSpace=wrap;html=1;" parent="1" vertex="1">
          <mxGeometry x="200" y="631.25" width="100" height="45" as="geometry" />
        </mxCell>
        <mxCell id="soVya1_GFJN7k5GcahZr-42" value="Creare un post" style="ellipse;whiteSpace=wrap;html=1;" parent="1" vertex="1">
          <mxGeometry x="200" y="695" width="100" height="45" as="geometry" />
        </mxCell>
        <mxCell id="soVya1_GFJN7k5GcahZr-73" style="edgeStyle=orthogonalEdgeStyle;rounded=0;orthogonalLoop=1;jettySize=auto;html=1;exitX=0.5;exitY=1;exitDx=0;exitDy=0;entryX=0;entryY=0.5;entryDx=0;entryDy=0;" parent="1" source="soVya1_GFJN7k5GcahZr-44" target="soVya1_GFJN7k5GcahZr-52" edge="1">
          <mxGeometry relative="1" as="geometry" />
        </mxCell>
        <mxCell id="soVya1_GFJN7k5GcahZr-74" style="edgeStyle=orthogonalEdgeStyle;rounded=0;orthogonalLoop=1;jettySize=auto;html=1;exitX=0.5;exitY=1;exitDx=0;exitDy=0;entryX=0;entryY=0.5;entryDx=0;entryDy=0;" parent="1" source="soVya1_GFJN7k5GcahZr-44" target="soVya1_GFJN7k5GcahZr-50" edge="1">
          <mxGeometry relative="1" as="geometry" />
        </mxCell>
        <mxCell id="soVya1_GFJN7k5GcahZr-75" style="edgeStyle=orthogonalEdgeStyle;rounded=0;orthogonalLoop=1;jettySize=auto;html=1;exitX=1;exitY=0.5;exitDx=0;exitDy=0;" parent="1" source="soVya1_GFJN7k5GcahZr-44" target="soVya1_GFJN7k5GcahZr-47" edge="1">
          <mxGeometry relative="1" as="geometry" />
        </mxCell>
        <mxCell id="soVya1_GFJN7k5GcahZr-44" value="Profilo" style="ellipse;whiteSpace=wrap;html=1;" parent="1" vertex="1">
          <mxGeometry x="200" y="760" width="100" height="45" as="geometry" />
        </mxCell>
        <mxCell id="soVya1_GFJN7k5GcahZr-45" value="Segnala post" style="ellipse;whiteSpace=wrap;html=1;" parent="1" vertex="1">
          <mxGeometry x="325" y="631.25" width="100" height="45" as="geometry" />
        </mxCell>
        <mxCell id="soVya1_GFJN7k5GcahZr-71" style="edgeStyle=orthogonalEdgeStyle;rounded=0;orthogonalLoop=1;jettySize=auto;html=1;exitX=1;exitY=0.5;exitDx=0;exitDy=0;entryX=0;entryY=0.5;entryDx=0;entryDy=0;" parent="1" source="soVya1_GFJN7k5GcahZr-47" target="soVya1_GFJN7k5GcahZr-48" edge="1">
          <mxGeometry relative="1" as="geometry" />
        </mxCell>
        <mxCell id="soVya1_GFJN7k5GcahZr-47" value="Cronologia post" style="ellipse;whiteSpace=wrap;html=1;" parent="1" vertex="1">
          <mxGeometry x="325" y="760" width="100" height="45" as="geometry" />
        </mxCell>
        <mxCell id="soVya1_GFJN7k5GcahZr-48" value="Modifica / eliminazione post" style="ellipse;whiteSpace=wrap;html=1;" parent="1" vertex="1">
          <mxGeometry x="450" y="760" width="100" height="45" as="geometry" />
        </mxCell>
        <mxCell id="soVya1_GFJN7k5GcahZr-72" style="edgeStyle=orthogonalEdgeStyle;rounded=0;orthogonalLoop=1;jettySize=auto;html=1;exitX=1;exitY=0.5;exitDx=0;exitDy=0;entryX=0;entryY=0.5;entryDx=0;entryDy=0;" parent="1" source="soVya1_GFJN7k5GcahZr-50" target="soVya1_GFJN7k5GcahZr-51" edge="1">
          <mxGeometry relative="1" as="geometry" />
        </mxCell>
        <mxCell id="soVya1_GFJN7k5GcahZr-50" value="Lista segnalazioni" style="ellipse;whiteSpace=wrap;html=1;" parent="1" vertex="1">
          <mxGeometry x="325" y="820" width="100" height="45" as="geometry" />
        </mxCell>
        <mxCell id="soVya1_GFJN7k5GcahZr-51" value="Modifica / eliminazione post" style="ellipse;whiteSpace=wrap;html=1;" parent="1" vertex="1">
          <mxGeometry x="450" y="820" width="100" height="45" as="geometry" />
        </mxCell>
        <mxCell id="soVya1_GFJN7k5GcahZr-52" value="Promuovere altri utenti" style="ellipse;whiteSpace=wrap;html=1;" parent="1" vertex="1">
          <mxGeometry x="325" y="880" width="100" height="45" as="geometry" />
        </mxCell>
      </root>
    </mxGraphModel>
  </diagram>
  <diagram id="4HYyiNS3PB6dgO_8fZ8p" name="Login/register">
    <mxGraphModel dx="1050" dy="557" grid="1" gridSize="10" guides="1" tooltips="1" connect="1" arrows="1" fold="1" page="1" pageScale="1" pageWidth="850" pageHeight="1100" math="0" shadow="0">
      <root>
        <mxCell id="0" />
        <mxCell id="1" parent="0" />
        <mxCell id="KP8pKnkbUn3MK0rCFEKN-8" style="edgeStyle=orthogonalEdgeStyle;rounded=0;orthogonalLoop=1;jettySize=auto;html=1;exitX=0.5;exitY=0.5;exitDx=0;exitDy=0;exitPerimeter=0;entryX=0;entryY=0.5;entryDx=0;entryDy=0;" parent="1" source="KP8pKnkbUn3MK0rCFEKN-1" target="KP8pKnkbUn3MK0rCFEKN-2" edge="1">
          <mxGeometry relative="1" as="geometry" />
        </mxCell>
        <mxCell id="KP8pKnkbUn3MK0rCFEKN-9" style="edgeStyle=orthogonalEdgeStyle;rounded=0;orthogonalLoop=1;jettySize=auto;html=1;exitX=0.5;exitY=0.5;exitDx=0;exitDy=0;exitPerimeter=0;entryX=0;entryY=0.5;entryDx=0;entryDy=0;" parent="1" source="KP8pKnkbUn3MK0rCFEKN-1" target="KP8pKnkbUn3MK0rCFEKN-3" edge="1">
          <mxGeometry relative="1" as="geometry" />
        </mxCell>
        <mxCell id="KP8pKnkbUn3MK0rCFEKN-1" value="UNA" style="shape=umlActor;verticalLabelPosition=bottom;verticalAlign=top;html=1;" parent="1" vertex="1">
          <mxGeometry x="410" y="310" width="30" height="60" as="geometry" />
        </mxCell>
        <mxCell id="KP8pKnkbUn3MK0rCFEKN-6" style="edgeStyle=orthogonalEdgeStyle;rounded=0;orthogonalLoop=1;jettySize=auto;html=1;exitX=1;exitY=0.5;exitDx=0;exitDy=0;entryX=0.5;entryY=0.5;entryDx=0;entryDy=0;entryPerimeter=0;" parent="1" source="KP8pKnkbUn3MK0rCFEKN-2" target="7_A779EXL6nX0R2aC6SO-2" edge="1">
          <mxGeometry relative="1" as="geometry">
            <mxPoint x="730" y="245" as="targetPoint" />
            <Array as="points">
              <mxPoint x="700" y="290" />
              <mxPoint x="700" y="240" />
            </Array>
          </mxGeometry>
        </mxCell>
        <mxCell id="KP8pKnkbUn3MK0rCFEKN-7" style="edgeStyle=orthogonalEdgeStyle;rounded=0;orthogonalLoop=1;jettySize=auto;html=1;exitX=1;exitY=0.5;exitDx=0;exitDy=0;entryX=0;entryY=0.5;entryDx=0;entryDy=0;" parent="1" source="KP8pKnkbUn3MK0rCFEKN-2" target="KP8pKnkbUn3MK0rCFEKN-5" edge="1">
          <mxGeometry relative="1" as="geometry" />
        </mxCell>
        <mxCell id="KP8pKnkbUn3MK0rCFEKN-2" value="Login" style="ellipse;whiteSpace=wrap;html=1;" parent="1" vertex="1">
          <mxGeometry x="520" y="255" width="140" height="70" as="geometry" />
        </mxCell>
        <mxCell id="7_A779EXL6nX0R2aC6SO-12" style="edgeStyle=orthogonalEdgeStyle;rounded=0;orthogonalLoop=1;jettySize=auto;html=1;exitX=1;exitY=0.5;exitDx=0;exitDy=0;entryX=0;entryY=0.5;entryDx=0;entryDy=0;" parent="1" source="KP8pKnkbUn3MK0rCFEKN-3" target="7_A779EXL6nX0R2aC6SO-4" edge="1">
          <mxGeometry relative="1" as="geometry" />
        </mxCell>
        <mxCell id="7_A779EXL6nX0R2aC6SO-15" value="&amp;lt;&amp;lt;include&amp;gt;&amp;gt;" style="edgeLabel;html=1;align=center;verticalAlign=middle;resizable=0;points=[];" parent="7_A779EXL6nX0R2aC6SO-12" connectable="0" vertex="1">
          <mxGeometry x="-0.2" y="2" relative="1" as="geometry">
            <mxPoint as="offset" />
          </mxGeometry>
        </mxCell>
        <mxCell id="7_A779EXL6nX0R2aC6SO-16" style="edgeStyle=orthogonalEdgeStyle;rounded=0;orthogonalLoop=1;jettySize=auto;html=1;exitX=1;exitY=0.5;exitDx=0;exitDy=0;" parent="1" source="KP8pKnkbUn3MK0rCFEKN-3" target="7_A779EXL6nX0R2aC6SO-7" edge="1">
          <mxGeometry relative="1" as="geometry">
            <Array as="points">
              <mxPoint x="660" y="495" />
            </Array>
          </mxGeometry>
        </mxCell>
        <mxCell id="7_A779EXL6nX0R2aC6SO-17" value="&amp;lt;&amp;lt;extend&amp;gt;&amp;gt;" style="edgeLabel;html=1;align=center;verticalAlign=middle;resizable=0;points=[];" parent="7_A779EXL6nX0R2aC6SO-16" connectable="0" vertex="1">
          <mxGeometry x="0.225" relative="1" as="geometry">
            <mxPoint as="offset" />
          </mxGeometry>
        </mxCell>
        <mxCell id="7_A779EXL6nX0R2aC6SO-18" style="edgeStyle=orthogonalEdgeStyle;rounded=0;orthogonalLoop=1;jettySize=auto;html=1;exitX=1;exitY=0.5;exitDx=0;exitDy=0;entryX=0;entryY=0.5;entryDx=0;entryDy=0;" parent="1" source="KP8pKnkbUn3MK0rCFEKN-3" target="7_A779EXL6nX0R2aC6SO-8" edge="1">
          <mxGeometry relative="1" as="geometry">
            <Array as="points">
              <mxPoint x="660" y="555" />
            </Array>
          </mxGeometry>
        </mxCell>
        <mxCell id="7_A779EXL6nX0R2aC6SO-24" value="&amp;lt;&amp;lt;include&amp;gt;&amp;gt;" style="edgeLabel;html=1;align=center;verticalAlign=middle;resizable=0;points=[];" parent="7_A779EXL6nX0R2aC6SO-18" connectable="0" vertex="1">
          <mxGeometry x="0.4636" y="-1" relative="1" as="geometry">
            <mxPoint as="offset" />
          </mxGeometry>
        </mxCell>
        <mxCell id="7_A779EXL6nX0R2aC6SO-19" style="edgeStyle=orthogonalEdgeStyle;rounded=0;orthogonalLoop=1;jettySize=auto;html=1;exitX=1;exitY=0.5;exitDx=0;exitDy=0;entryX=0;entryY=0.5;entryDx=0;entryDy=0;" parent="1" source="KP8pKnkbUn3MK0rCFEKN-3" target="7_A779EXL6nX0R2aC6SO-9" edge="1">
          <mxGeometry relative="1" as="geometry">
            <Array as="points">
              <mxPoint x="660" y="615" />
            </Array>
          </mxGeometry>
        </mxCell>
        <mxCell id="7_A779EXL6nX0R2aC6SO-25" value="&amp;lt;&amp;lt;include&amp;gt;&amp;gt;" style="edgeLabel;html=1;align=center;verticalAlign=middle;resizable=0;points=[];" parent="7_A779EXL6nX0R2aC6SO-19" connectable="0" vertex="1">
          <mxGeometry x="0.5857" y="2" relative="1" as="geometry">
            <mxPoint as="offset" />
          </mxGeometry>
        </mxCell>
        <mxCell id="KP8pKnkbUn3MK0rCFEKN-3" value="Registrazione" style="ellipse;whiteSpace=wrap;html=1;" parent="1" vertex="1">
          <mxGeometry x="520" y="400" width="140" height="70" as="geometry" />
        </mxCell>
        <mxCell id="KP8pKnkbUn3MK0rCFEKN-5" value="Username / password" style="ellipse;whiteSpace=wrap;html=1;" parent="1" vertex="1">
          <mxGeometry x="740" y="310" width="120" height="50" as="geometry" />
        </mxCell>
        <mxCell id="7_A779EXL6nX0R2aC6SO-2" value="GOOGLE SSO" style="shape=umlActor;verticalLabelPosition=bottom;verticalAlign=top;html=1;" parent="1" vertex="1">
          <mxGeometry x="785" y="210" width="30" height="60" as="geometry" />
        </mxCell>
        <mxCell id="7_A779EXL6nX0R2aC6SO-10" style="edgeStyle=orthogonalEdgeStyle;rounded=0;orthogonalLoop=1;jettySize=auto;html=1;exitX=0.5;exitY=0.5;exitDx=0;exitDy=0;exitPerimeter=0;" parent="1" source="7_A779EXL6nX0R2aC6SO-3" edge="1">
          <mxGeometry relative="1" as="geometry">
            <mxPoint x="590" y="550" as="targetPoint" />
          </mxGeometry>
        </mxCell>
        <mxCell id="7_A779EXL6nX0R2aC6SO-3" value="Email Server" style="shape=umlActor;verticalLabelPosition=bottom;verticalAlign=top;html=1;" parent="1" vertex="1">
          <mxGeometry x="575" y="550" width="30" height="60" as="geometry" />
        </mxCell>
        <mxCell id="7_A779EXL6nX0R2aC6SO-14" style="edgeStyle=orthogonalEdgeStyle;rounded=0;orthogonalLoop=1;jettySize=auto;html=1;exitX=1;exitY=0.5;exitDx=0;exitDy=0;entryX=0;entryY=0.5;entryDx=0;entryDy=0;" parent="1" source="7_A779EXL6nX0R2aC6SO-4" target="7_A779EXL6nX0R2aC6SO-13" edge="1">
          <mxGeometry relative="1" as="geometry" />
        </mxCell>
        <mxCell id="7_A779EXL6nX0R2aC6SO-4" value="Inserimento email" style="ellipse;whiteSpace=wrap;html=1;" parent="1" vertex="1">
          <mxGeometry x="760" y="410" width="120" height="50" as="geometry" />
        </mxCell>
        <mxCell id="7_A779EXL6nX0R2aC6SO-7" value="Inserimento numero di telefono" style="ellipse;whiteSpace=wrap;html=1;" parent="1" vertex="1">
          <mxGeometry x="760" y="470" width="120" height="50" as="geometry" />
        </mxCell>
        <mxCell id="7_A779EXL6nX0R2aC6SO-22" style="edgeStyle=orthogonalEdgeStyle;rounded=0;orthogonalLoop=1;jettySize=auto;html=1;exitX=1;exitY=0.5;exitDx=0;exitDy=0;entryX=0;entryY=0.5;entryDx=0;entryDy=0;" parent="1" source="7_A779EXL6nX0R2aC6SO-8" target="7_A779EXL6nX0R2aC6SO-20" edge="1">
          <mxGeometry relative="1" as="geometry" />
        </mxCell>
        <mxCell id="7_A779EXL6nX0R2aC6SO-8" value="Inserire nome utente" style="ellipse;whiteSpace=wrap;html=1;" parent="1" vertex="1">
          <mxGeometry x="760" y="530" width="120" height="50" as="geometry" />
        </mxCell>
        <mxCell id="7_A779EXL6nX0R2aC6SO-23" style="edgeStyle=orthogonalEdgeStyle;rounded=0;orthogonalLoop=1;jettySize=auto;html=1;exitX=1;exitY=0.5;exitDx=0;exitDy=0;entryX=0;entryY=0.5;entryDx=0;entryDy=0;" parent="1" source="7_A779EXL6nX0R2aC6SO-9" target="7_A779EXL6nX0R2aC6SO-21" edge="1">
          <mxGeometry relative="1" as="geometry" />
        </mxCell>
        <mxCell id="7_A779EXL6nX0R2aC6SO-9" value="Creazione password" style="ellipse;whiteSpace=wrap;html=1;" parent="1" vertex="1">
          <mxGeometry x="760" y="590" width="120" height="50" as="geometry" />
        </mxCell>
        <mxCell id="7_A779EXL6nX0R2aC6SO-11" style="edgeStyle=orthogonalEdgeStyle;rounded=0;orthogonalLoop=1;jettySize=auto;html=1;exitX=0.5;exitY=1;exitDx=0;exitDy=0;entryX=0.5;entryY=0;entryDx=0;entryDy=0;entryPerimeter=0;" parent="1" source="KP8pKnkbUn3MK0rCFEKN-3" target="7_A779EXL6nX0R2aC6SO-3" edge="1">
          <mxGeometry relative="1" as="geometry" />
        </mxCell>
        <mxCell id="7_A779EXL6nX0R2aC6SO-13" value="Verifica email" style="ellipse;whiteSpace=wrap;html=1;" parent="1" vertex="1">
          <mxGeometry x="910" y="410" width="120" height="50" as="geometry" />
        </mxCell>
        <mxCell id="7_A779EXL6nX0R2aC6SO-20" value="Verifica disponibilità" style="ellipse;whiteSpace=wrap;html=1;" parent="1" vertex="1">
          <mxGeometry x="910" y="530" width="120" height="50" as="geometry" />
        </mxCell>
        <mxCell id="7_A779EXL6nX0R2aC6SO-21" value="Controllo sicurezza" style="ellipse;whiteSpace=wrap;html=1;" parent="1" vertex="1">
          <mxGeometry x="910" y="590" width="120" height="50" as="geometry" />
        </mxCell>
      </root>
    </mxGraphModel>
  </diagram>
  <diagram id="bQ-i-B-l5mwEUFueoeYj" name="Gestione sessione">
    <mxGraphModel grid="1" page="1" gridSize="10" guides="1" tooltips="1" connect="1" arrows="1" fold="1" pageScale="1" pageWidth="850" pageHeight="1100" math="0" shadow="0">
      <root>
        <mxCell id="0" />
        <mxCell id="1" parent="0" />
        <mxCell id="n1Ktax9hSabcHGnYL5GG-11" style="edgeStyle=orthogonalEdgeStyle;rounded=0;orthogonalLoop=1;jettySize=auto;html=1;exitX=0.5;exitY=0.5;exitDx=0;exitDy=0;exitPerimeter=0;entryX=1;entryY=0.5;entryDx=0;entryDy=0;" parent="1" source="n1Ktax9hSabcHGnYL5GG-3" target="n1Ktax9hSabcHGnYL5GG-7" edge="1">
          <mxGeometry relative="1" as="geometry" />
        </mxCell>
        <mxCell id="n1Ktax9hSabcHGnYL5GG-3" value="UNA" style="shape=umlActor;verticalLabelPosition=bottom;verticalAlign=top;html=1;" parent="1" vertex="1">
          <mxGeometry x="250" y="315" width="30" height="60" as="geometry" />
        </mxCell>
        <mxCell id="mczQXPDhBOofufmLuHys-6" style="edgeStyle=orthogonalEdgeStyle;rounded=0;orthogonalLoop=1;jettySize=auto;html=1;exitX=0.5;exitY=0.5;exitDx=0;exitDy=0;exitPerimeter=0;entryX=0;entryY=0.5;entryDx=0;entryDy=0;" parent="1" source="n1Ktax9hSabcHGnYL5GG-4" target="n1Ktax9hSabcHGnYL5GG-21" edge="1">
          <mxGeometry relative="1" as="geometry" />
        </mxCell>
        <mxCell id="n1Ktax9hSabcHGnYL5GG-4" value="UA / ADMIN" style="shape=umlActor;verticalLabelPosition=bottom;verticalAlign=top;html=1;" parent="1" vertex="1">
          <mxGeometry x="250" y="450" width="30" height="60" as="geometry" />
        </mxCell>
        <mxCell id="M_ReJW9hlYLkq8YMWDtc-15" style="edgeStyle=none;curved=1;rounded=0;orthogonalLoop=1;jettySize=auto;html=1;exitX=0;exitY=0.5;exitDx=0;exitDy=0;fontSize=12;startSize=8;endSize=8;" edge="1" parent="1" source="n1Ktax9hSabcHGnYL5GG-7" target="n1Ktax9hSabcHGnYL5GG-10">
          <mxGeometry relative="1" as="geometry" />
        </mxCell>
        <mxCell id="n1Ktax9hSabcHGnYL5GG-7" value="Login" style="ellipse;whiteSpace=wrap;html=1;direction=west;" parent="1" vertex="1">
          <mxGeometry x="310" y="310" width="140" height="70" as="geometry" />
        </mxCell>
        <mxCell id="M_ReJW9hlYLkq8YMWDtc-20" style="edgeStyle=none;curved=1;rounded=0;orthogonalLoop=1;jettySize=auto;html=1;exitX=1;exitY=0.5;exitDx=0;exitDy=0;fontSize=12;startSize=8;endSize=8;" edge="1" parent="1" source="n1Ktax9hSabcHGnYL5GG-8" target="n1Ktax9hSabcHGnYL5GG-9">
          <mxGeometry relative="1" as="geometry" />
        </mxCell>
        <mxCell id="n1Ktax9hSabcHGnYL5GG-8" value="Logout" style="ellipse;whiteSpace=wrap;html=1;" parent="1" vertex="1">
          <mxGeometry x="850" y="310" width="140" height="70" as="geometry" />
        </mxCell>
        <mxCell id="n1Ktax9hSabcHGnYL5GG-9" value="Eliminazione della sessione" style="ellipse;whiteSpace=wrap;html=1;" parent="1" vertex="1">
          <mxGeometry x="1030" y="310" width="140" height="70" as="geometry" />
        </mxCell>
        <mxCell id="M_ReJW9hlYLkq8YMWDtc-16" style="edgeStyle=none;curved=1;rounded=0;orthogonalLoop=1;jettySize=auto;html=1;exitX=1;exitY=0.5;exitDx=0;exitDy=0;fontSize=12;startSize=8;endSize=8;" edge="1" parent="1" source="n1Ktax9hSabcHGnYL5GG-10" target="M_ReJW9hlYLkq8YMWDtc-13">
          <mxGeometry relative="1" as="geometry" />
        </mxCell>
        <mxCell id="n1Ktax9hSabcHGnYL5GG-10" value="Creazione della sessione" style="ellipse;whiteSpace=wrap;html=1;" parent="1" vertex="1">
          <mxGeometry x="490" y="310" width="140" height="70" as="geometry" />
        </mxCell>
        <mxCell id="M_ReJW9hlYLkq8YMWDtc-17" style="edgeStyle=none;curved=1;rounded=0;orthogonalLoop=1;jettySize=auto;html=1;exitX=1;exitY=0.5;exitDx=0;exitDy=0;entryX=0;entryY=0.5;entryDx=0;entryDy=0;fontSize=12;startSize=8;endSize=8;" edge="1" parent="1" source="n1Ktax9hSabcHGnYL5GG-21" target="n1Ktax9hSabcHGnYL5GG-25">
          <mxGeometry relative="1" as="geometry" />
        </mxCell>
        <mxCell id="n1Ktax9hSabcHGnYL5GG-21" value="Login" style="ellipse;whiteSpace=wrap;html=1;" parent="1" vertex="1">
          <mxGeometry x="310" y="445" width="140" height="70" as="geometry" />
        </mxCell>
        <mxCell id="M_ReJW9hlYLkq8YMWDtc-6" style="edgeStyle=none;curved=1;rounded=0;orthogonalLoop=1;jettySize=auto;html=1;entryX=0;entryY=0.5;entryDx=0;entryDy=0;fontSize=12;startSize=8;endSize=8;" edge="1" parent="1" source="n1Ktax9hSabcHGnYL5GG-23" target="n1Ktax9hSabcHGnYL5GG-24">
          <mxGeometry relative="1" as="geometry" />
        </mxCell>
        <mxCell id="n1Ktax9hSabcHGnYL5GG-23" value="Logout" style="ellipse;whiteSpace=wrap;html=1;" parent="1" vertex="1">
          <mxGeometry x="850" y="445" width="140" height="70" as="geometry" />
        </mxCell>
        <mxCell id="n1Ktax9hSabcHGnYL5GG-24" value="Salvataggio della sessione" style="ellipse;whiteSpace=wrap;html=1;" parent="1" vertex="1">
          <mxGeometry x="1030" y="445" width="140" height="70" as="geometry" />
        </mxCell>
        <mxCell id="M_ReJW9hlYLkq8YMWDtc-18" style="edgeStyle=none;curved=1;rounded=0;orthogonalLoop=1;jettySize=auto;html=1;exitX=1;exitY=0.5;exitDx=0;exitDy=0;entryX=0;entryY=0.5;entryDx=0;entryDy=0;fontSize=12;startSize=8;endSize=8;" edge="1" parent="1" source="n1Ktax9hSabcHGnYL5GG-25" target="M_ReJW9hlYLkq8YMWDtc-4">
          <mxGeometry relative="1" as="geometry" />
        </mxCell>
        <mxCell id="n1Ktax9hSabcHGnYL5GG-25" value="Creazione della sessione" style="ellipse;whiteSpace=wrap;html=1;" parent="1" vertex="1">
          <mxGeometry x="490" y="445" width="140" height="70" as="geometry" />
        </mxCell>
        <mxCell id="M_ReJW9hlYLkq8YMWDtc-2" style="edgeStyle=none;curved=1;rounded=0;orthogonalLoop=1;jettySize=auto;html=1;entryX=0;entryY=0.5;entryDx=0;entryDy=0;fontSize=12;startSize=8;endSize=8;" edge="1" parent="1" source="n1Ktax9hSabcHGnYL5GG-23" target="n1Ktax9hSabcHGnYL5GG-23">
          <mxGeometry relative="1" as="geometry" />
        </mxCell>
        <mxCell id="M_ReJW9hlYLkq8YMWDtc-5" style="edgeStyle=none;curved=1;rounded=0;orthogonalLoop=1;jettySize=auto;html=1;exitX=1;exitY=0.5;exitDx=0;exitDy=0;entryX=0;entryY=0.5;entryDx=0;entryDy=0;fontSize=12;startSize=8;endSize=8;" edge="1" parent="1" source="M_ReJW9hlYLkq8YMWDtc-4" target="n1Ktax9hSabcHGnYL5GG-23">
          <mxGeometry relative="1" as="geometry" />
        </mxCell>
        <mxCell id="M_ReJW9hlYLkq8YMWDtc-4" value="Homepage" style="ellipse;whiteSpace=wrap;html=1;" vertex="1" parent="1">
          <mxGeometry x="670" y="445" width="140" height="70" as="geometry" />
        </mxCell>
        <mxCell id="M_ReJW9hlYLkq8YMWDtc-19" style="edgeStyle=none;curved=1;rounded=0;orthogonalLoop=1;jettySize=auto;html=1;exitX=1;exitY=0.5;exitDx=0;exitDy=0;entryX=0;entryY=0.5;entryDx=0;entryDy=0;fontSize=12;startSize=8;endSize=8;" edge="1" parent="1" source="M_ReJW9hlYLkq8YMWDtc-13" target="n1Ktax9hSabcHGnYL5GG-8">
          <mxGeometry relative="1" as="geometry" />
        </mxCell>
        <mxCell id="M_ReJW9hlYLkq8YMWDtc-13" value="Homepage" style="ellipse;whiteSpace=wrap;html=1;" vertex="1" parent="1">
          <mxGeometry x="670" y="310" width="140" height="70" as="geometry" />
        </mxCell>
      </root>
    </mxGraphModel>
  </diagram>
  <diagram id="1WUz04HxlzQEPGjZgoNc" name="Eliminazione account">
    <mxGraphModel dx="1050" dy="557" grid="1" gridSize="10" guides="1" tooltips="1" connect="1" arrows="1" fold="1" page="1" pageScale="1" pageWidth="850" pageHeight="1100" math="0" shadow="0">
      <root>
        <mxCell id="0" />
        <mxCell id="1" parent="0" />
        <mxCell id="W60j38rt5VKoae4yev8i-3" style="edgeStyle=orthogonalEdgeStyle;rounded=0;orthogonalLoop=1;jettySize=auto;html=1;exitX=0.5;exitY=0.5;exitDx=0;exitDy=0;exitPerimeter=0;" parent="1" source="W60j38rt5VKoae4yev8i-1" target="W60j38rt5VKoae4yev8i-2" edge="1">
          <mxGeometry relative="1" as="geometry" />
        </mxCell>
        <mxCell id="W60j38rt5VKoae4yev8i-1" value="UA" style="shape=umlActor;verticalLabelPosition=bottom;verticalAlign=top;html=1;" parent="1" vertex="1">
          <mxGeometry x="80" y="320" width="30" height="60" as="geometry" />
        </mxCell>
        <mxCell id="W60j38rt5VKoae4yev8i-8" value="" style="edgeStyle=orthogonalEdgeStyle;rounded=0;orthogonalLoop=1;jettySize=auto;html=1;" parent="1" source="W60j38rt5VKoae4yev8i-2" target="W60j38rt5VKoae4yev8i-4" edge="1">
          <mxGeometry relative="1" as="geometry" />
        </mxCell>
        <mxCell id="W60j38rt5VKoae4yev8i-2" value="Accesso con credenziali" style="ellipse;whiteSpace=wrap;html=1;" parent="1" vertex="1">
          <mxGeometry x="170" y="315" width="140" height="70" as="geometry" />
        </mxCell>
        <mxCell id="W60j38rt5VKoae4yev8i-9" value="" style="edgeStyle=orthogonalEdgeStyle;rounded=0;orthogonalLoop=1;jettySize=auto;html=1;" parent="1" source="W60j38rt5VKoae4yev8i-4" target="W60j38rt5VKoae4yev8i-6" edge="1">
          <mxGeometry relative="1" as="geometry" />
        </mxCell>
        <mxCell id="W60j38rt5VKoae4yev8i-4" value="Modifica del profilo" style="ellipse;whiteSpace=wrap;html=1;" parent="1" vertex="1">
          <mxGeometry x="370" y="315" width="140" height="70" as="geometry" />
        </mxCell>
        <mxCell id="W60j38rt5VKoae4yev8i-10" value="" style="edgeStyle=orthogonalEdgeStyle;rounded=0;orthogonalLoop=1;jettySize=auto;html=1;" parent="1" source="W60j38rt5VKoae4yev8i-6" target="W60j38rt5VKoae4yev8i-7" edge="1">
          <mxGeometry relative="1" as="geometry" />
        </mxCell>
        <mxCell id="W60j38rt5VKoae4yev8i-6" value="Eliminazione del profilo" style="ellipse;whiteSpace=wrap;html=1;" parent="1" vertex="1">
          <mxGeometry x="570" y="315" width="140" height="70" as="geometry" />
        </mxCell>
        <mxCell id="qDl7VUjhMHaxIKLba8T4-4" style="edgeStyle=orthogonalEdgeStyle;rounded=0;orthogonalLoop=1;jettySize=auto;html=1;exitX=0.5;exitY=0;exitDx=0;exitDy=0;entryX=0.5;entryY=1;entryDx=0;entryDy=0;" parent="1" source="W60j38rt5VKoae4yev8i-7" target="qDl7VUjhMHaxIKLba8T4-2" edge="1">
          <mxGeometry relative="1" as="geometry">
            <Array as="points">
              <mxPoint x="840" y="310" />
              <mxPoint x="680" y="310" />
            </Array>
          </mxGeometry>
        </mxCell>
        <mxCell id="qDl7VUjhMHaxIKLba8T4-7" value="&amp;lt;&amp;lt;include&amp;gt;&amp;gt;" style="edgeLabel;html=1;align=center;verticalAlign=middle;resizable=0;points=[];" parent="qDl7VUjhMHaxIKLba8T4-4" connectable="0" vertex="1">
          <mxGeometry x="0.1033" relative="1" as="geometry">
            <mxPoint as="offset" />
          </mxGeometry>
        </mxCell>
        <mxCell id="W60j38rt5VKoae4yev8i-7" value="Conferma tramite email" style="ellipse;whiteSpace=wrap;html=1;" parent="1" vertex="1">
          <mxGeometry x="770" y="315" width="140" height="70" as="geometry" />
        </mxCell>
        <mxCell id="qDl7VUjhMHaxIKLba8T4-6" value="" style="edgeStyle=orthogonalEdgeStyle;rounded=0;orthogonalLoop=1;jettySize=auto;html=1;" parent="1" source="qDl7VUjhMHaxIKLba8T4-1" target="W60j38rt5VKoae4yev8i-7" edge="1">
          <mxGeometry relative="1" as="geometry" />
        </mxCell>
        <mxCell id="qDl7VUjhMHaxIKLba8T4-8" value="&amp;lt;&amp;lt;extend&amp;gt;&amp;gt;" style="edgeLabel;html=1;align=center;verticalAlign=middle;resizable=0;points=[];" parent="qDl7VUjhMHaxIKLba8T4-6" connectable="0" vertex="1">
          <mxGeometry x="-0.4787" y="-2" relative="1" as="geometry">
            <mxPoint as="offset" />
          </mxGeometry>
        </mxCell>
        <mxCell id="qDl7VUjhMHaxIKLba8T4-1" value="Tutti i post vengono cancellati" style="ellipse;whiteSpace=wrap;html=1;" parent="1" vertex="1">
          <mxGeometry x="770" y="210" width="140" height="70" as="geometry" />
        </mxCell>
        <mxCell id="qDl7VUjhMHaxIKLba8T4-2" value="Il profilo rimane attivo se non viene confermato" style="ellipse;whiteSpace=wrap;html=1;" parent="1" vertex="1">
          <mxGeometry x="610" y="210" width="140" height="70" as="geometry" />
        </mxCell>
      </root>
    </mxGraphModel>
  </diagram>
  <diagram id="DGkclgffEr_CNijxs_8v" name="Modifica password">
    <mxGraphModel dx="1339" dy="607" grid="1" gridSize="10" guides="1" tooltips="1" connect="1" arrows="1" fold="1" page="1" pageScale="1" pageWidth="850" pageHeight="1100" math="0" shadow="0">
      <root>
        <mxCell id="0" />
        <mxCell id="1" parent="0" />
        <mxCell id="HU9eBamHWcVVeqIukPjP-7" style="edgeStyle=orthogonalEdgeStyle;rounded=0;orthogonalLoop=1;jettySize=auto;html=1;exitX=0.5;exitY=0.5;exitDx=0;exitDy=0;exitPerimeter=0;entryX=0;entryY=0.5;entryDx=0;entryDy=0;" parent="1" source="HU9eBamHWcVVeqIukPjP-1" target="HU9eBamHWcVVeqIukPjP-2" edge="1">
          <mxGeometry relative="1" as="geometry" />
        </mxCell>
        <mxCell id="HU9eBamHWcVVeqIukPjP-1" value="UA" style="shape=umlActor;verticalLabelPosition=bottom;verticalAlign=top;html=1;" parent="1" vertex="1">
          <mxGeometry x="60" y="290" width="30" height="60" as="geometry" />
        </mxCell>
        <mxCell id="HU9eBamHWcVVeqIukPjP-8" value="" style="edgeStyle=orthogonalEdgeStyle;rounded=0;orthogonalLoop=1;jettySize=auto;html=1;" parent="1" source="HU9eBamHWcVVeqIukPjP-2" target="HU9eBamHWcVVeqIukPjP-3" edge="1">
          <mxGeometry relative="1" as="geometry" />
        </mxCell>
        <mxCell id="HU9eBamHWcVVeqIukPjP-2" value="Accesso con credenziali" style="ellipse;whiteSpace=wrap;html=1;" parent="1" vertex="1">
          <mxGeometry x="140" y="285" width="140" height="70" as="geometry" />
        </mxCell>
        <mxCell id="HU9eBamHWcVVeqIukPjP-9" value="" style="edgeStyle=orthogonalEdgeStyle;rounded=0;orthogonalLoop=1;jettySize=auto;html=1;" parent="1" source="HU9eBamHWcVVeqIukPjP-3" target="HU9eBamHWcVVeqIukPjP-4" edge="1">
          <mxGeometry relative="1" as="geometry" />
        </mxCell>
        <mxCell id="HU9eBamHWcVVeqIukPjP-3" value="&lt;span style=&quot;caret-color: rgb(0, 0, 0); color: rgb(0, 0, 0); font-family: Helvetica; font-size: 12px; font-style: normal; font-variant-caps: normal; font-weight: 400; letter-spacing: normal; orphans: auto; text-align: center; text-indent: 0px; text-transform: none; white-space: normal; widows: auto; word-spacing: 0px; -webkit-text-stroke-width: 0px; background-color: rgb(251, 251, 251); text-decoration: none; display: inline !important; float: none;&quot;&gt;Link di recupero / cambio password&lt;/span&gt;" style="ellipse;whiteSpace=wrap;html=1;" parent="1" vertex="1">
          <mxGeometry x="330" y="285" width="140" height="70" as="geometry" />
        </mxCell>
        <mxCell id="HU9eBamHWcVVeqIukPjP-10" value="" style="edgeStyle=orthogonalEdgeStyle;rounded=0;orthogonalLoop=1;jettySize=auto;html=1;" parent="1" source="HU9eBamHWcVVeqIukPjP-4" target="HU9eBamHWcVVeqIukPjP-6" edge="1">
          <mxGeometry relative="1" as="geometry" />
        </mxCell>
        <mxCell id="HU9eBamHWcVVeqIukPjP-4" value="Email con link" style="ellipse;whiteSpace=wrap;html=1;" parent="1" vertex="1">
          <mxGeometry x="520" y="285" width="140" height="70" as="geometry" />
        </mxCell>
        <mxCell id="sJXnkr1Ijp9hFz3nRsTX-5" value="" style="edgeStyle=orthogonalEdgeStyle;rounded=0;orthogonalLoop=1;jettySize=auto;html=1;" parent="1" source="HU9eBamHWcVVeqIukPjP-6" target="sJXnkr1Ijp9hFz3nRsTX-4" edge="1">
          <mxGeometry relative="1" as="geometry" />
        </mxCell>
        <mxCell id="sJXnkr1Ijp9hFz3nRsTX-6" value="&amp;lt;&amp;lt;include&amp;gt;&amp;gt;" style="edgeLabel;html=1;align=center;verticalAlign=middle;resizable=0;points=[];" parent="sJXnkr1Ijp9hFz3nRsTX-5" connectable="0" vertex="1">
          <mxGeometry x="-0.3778" relative="1" as="geometry">
            <mxPoint as="offset" />
          </mxGeometry>
        </mxCell>
        <mxCell id="HU9eBamHWcVVeqIukPjP-6" value="Inserimento nuova password" style="ellipse;whiteSpace=wrap;html=1;" parent="1" vertex="1">
          <mxGeometry x="710" y="285" width="140" height="70" as="geometry" />
        </mxCell>
        <mxCell id="sJXnkr1Ijp9hFz3nRsTX-2" value="" style="edgeStyle=orthogonalEdgeStyle;rounded=0;orthogonalLoop=1;jettySize=auto;html=1;" parent="1" source="sJXnkr1Ijp9hFz3nRsTX-1" target="HU9eBamHWcVVeqIukPjP-4" edge="1">
          <mxGeometry relative="1" as="geometry" />
        </mxCell>
        <mxCell id="sJXnkr1Ijp9hFz3nRsTX-3" value="&amp;lt;&amp;lt;extend&amp;gt;&amp;gt;" style="edgeLabel;html=1;align=center;verticalAlign=middle;resizable=0;points=[];" parent="sJXnkr1Ijp9hFz3nRsTX-2" connectable="0" vertex="1">
          <mxGeometry x="-0.4222" y="-1" relative="1" as="geometry">
            <mxPoint as="offset" />
          </mxGeometry>
        </mxCell>
        <mxCell id="sJXnkr1Ijp9hFz3nRsTX-1" value="Validità di 24 ore" style="ellipse;whiteSpace=wrap;html=1;" parent="1" vertex="1">
          <mxGeometry x="520" y="180" width="140" height="70" as="geometry" />
        </mxCell>
        <mxCell id="sJXnkr1Ijp9hFz3nRsTX-4" value="Controllo sicurezza" style="ellipse;whiteSpace=wrap;html=1;" parent="1" vertex="1">
          <mxGeometry x="710" y="180" width="140" height="70" as="geometry" />
        </mxCell>
      </root>
    </mxGraphModel>
  </diagram>
  <diagram name="Modifica profilo utente" id="36V8k6HyKiyOFqC_dt6y">
    <mxGraphModel dx="1050" dy="557" grid="1" gridSize="10" guides="1" tooltips="1" connect="1" arrows="1" fold="1" page="1" pageScale="1" pageWidth="850" pageHeight="1100" math="0" shadow="0">
      <root>
        <mxCell id="-eNxcE-H5WrsNksQf-Ch-0" />
        <mxCell id="-eNxcE-H5WrsNksQf-Ch-1" parent="-eNxcE-H5WrsNksQf-Ch-0" />
        <mxCell id="-eNxcE-H5WrsNksQf-Ch-2" style="edgeStyle=orthogonalEdgeStyle;rounded=0;orthogonalLoop=1;jettySize=auto;html=1;exitX=0.5;exitY=0.5;exitDx=0;exitDy=0;exitPerimeter=0;entryX=0;entryY=0.5;entryDx=0;entryDy=0;" parent="-eNxcE-H5WrsNksQf-Ch-1" source="-eNxcE-H5WrsNksQf-Ch-3" target="-eNxcE-H5WrsNksQf-Ch-5" edge="1">
          <mxGeometry relative="1" as="geometry" />
        </mxCell>
        <mxCell id="-eNxcE-H5WrsNksQf-Ch-3" value="UA" style="shape=umlActor;verticalLabelPosition=bottom;verticalAlign=top;html=1;" parent="-eNxcE-H5WrsNksQf-Ch-1" vertex="1">
          <mxGeometry x="60" y="290" width="30" height="60" as="geometry" />
        </mxCell>
        <mxCell id="-eNxcE-H5WrsNksQf-Ch-4" value="" style="edgeStyle=orthogonalEdgeStyle;rounded=0;orthogonalLoop=1;jettySize=auto;html=1;" parent="-eNxcE-H5WrsNksQf-Ch-1" source="-eNxcE-H5WrsNksQf-Ch-5" target="-eNxcE-H5WrsNksQf-Ch-7" edge="1">
          <mxGeometry relative="1" as="geometry" />
        </mxCell>
        <mxCell id="-eNxcE-H5WrsNksQf-Ch-5" value="Accesso con credenziali" style="ellipse;whiteSpace=wrap;html=1;" parent="-eNxcE-H5WrsNksQf-Ch-1" vertex="1">
          <mxGeometry x="140" y="285" width="140" height="70" as="geometry" />
        </mxCell>
        <mxCell id="-eNxcE-H5WrsNksQf-Ch-6" value="" style="edgeStyle=orthogonalEdgeStyle;rounded=0;orthogonalLoop=1;jettySize=auto;html=1;" parent="-eNxcE-H5WrsNksQf-Ch-1" source="-eNxcE-H5WrsNksQf-Ch-7" target="-eNxcE-H5WrsNksQf-Ch-9" edge="1">
          <mxGeometry relative="1" as="geometry" />
        </mxCell>
        <mxCell id="-eNxcE-H5WrsNksQf-Ch-7" value="&lt;span style=&quot;caret-color: rgb(0, 0, 0); color: rgb(0, 0, 0); font-family: Helvetica; font-size: 12px; font-style: normal; font-variant-caps: normal; font-weight: 400; letter-spacing: normal; orphans: auto; text-align: center; text-indent: 0px; text-transform: none; white-space: normal; widows: auto; word-spacing: 0px; -webkit-text-stroke-width: 0px; background-color: rgb(251, 251, 251); text-decoration: none; display: inline !important; float: none;&quot;&gt;Accesso al proprio profilo&lt;/span&gt;" style="ellipse;whiteSpace=wrap;html=1;" parent="-eNxcE-H5WrsNksQf-Ch-1" vertex="1">
          <mxGeometry x="330" y="285" width="140" height="70" as="geometry" />
        </mxCell>
        <mxCell id="-eNxcE-H5WrsNksQf-Ch-9" value="Modifica della parte interessata" style="ellipse;whiteSpace=wrap;html=1;" parent="-eNxcE-H5WrsNksQf-Ch-1" vertex="1">
          <mxGeometry x="520" y="285" width="140" height="70" as="geometry" />
        </mxCell>
        <mxCell id="oEfkBrHbjnDiiI9bxFVR-1" value="" style="edgeStyle=orthogonalEdgeStyle;rounded=0;orthogonalLoop=1;jettySize=auto;html=1;" parent="-eNxcE-H5WrsNksQf-Ch-1" source="oEfkBrHbjnDiiI9bxFVR-0" target="-eNxcE-H5WrsNksQf-Ch-9" edge="1">
          <mxGeometry relative="1" as="geometry" />
        </mxCell>
        <mxCell id="oEfkBrHbjnDiiI9bxFVR-2" value="&amp;lt;&amp;lt;extend&amp;gt;&amp;gt;" style="edgeLabel;html=1;align=center;verticalAlign=middle;resizable=0;points=[];" parent="oEfkBrHbjnDiiI9bxFVR-1" connectable="0" vertex="1">
          <mxGeometry x="-0.6444" y="1" relative="1" as="geometry">
            <mxPoint x="-1" y="12" as="offset" />
          </mxGeometry>
        </mxCell>
        <mxCell id="oEfkBrHbjnDiiI9bxFVR-0" value="Informazione dell&#39;utente" style="ellipse;whiteSpace=wrap;html=1;" parent="-eNxcE-H5WrsNksQf-Ch-1" vertex="1">
          <mxGeometry x="520" y="170" width="140" height="70" as="geometry" />
        </mxCell>
      </root>
    </mxGraphModel>
  </diagram>
  <diagram name="Mappa iterattiva" id="mbxuD8rEnz-11uVZvRHM">
    <mxGraphModel dx="1050" dy="557" grid="1" gridSize="10" guides="1" tooltips="1" connect="1" arrows="1" fold="1" page="1" pageScale="1" pageWidth="850" pageHeight="1100" math="0" shadow="0">
      <root>
        <mxCell id="KJiX2xMdJNfPIaYjWW22-0" />
        <mxCell id="KJiX2xMdJNfPIaYjWW22-1" parent="KJiX2xMdJNfPIaYjWW22-0" />
        <mxCell id="KJiX2xMdJNfPIaYjWW22-2" style="edgeStyle=orthogonalEdgeStyle;rounded=0;orthogonalLoop=1;jettySize=auto;html=1;exitX=0.5;exitY=0.5;exitDx=0;exitDy=0;exitPerimeter=0;entryX=0;entryY=0.5;entryDx=0;entryDy=0;" parent="KJiX2xMdJNfPIaYjWW22-1" source="KJiX2xMdJNfPIaYjWW22-3" target="KJiX2xMdJNfPIaYjWW22-5" edge="1">
          <mxGeometry relative="1" as="geometry" />
        </mxCell>
        <mxCell id="KJiX2xMdJNfPIaYjWW22-3" value="UNA" style="shape=umlActor;verticalLabelPosition=bottom;verticalAlign=top;html=1;" parent="KJiX2xMdJNfPIaYjWW22-1" vertex="1">
          <mxGeometry x="60" y="290" width="30" height="60" as="geometry" />
        </mxCell>
        <mxCell id="KJiX2xMdJNfPIaYjWW22-5" value="Accesso alla mappa" style="ellipse;whiteSpace=wrap;html=1;" parent="KJiX2xMdJNfPIaYjWW22-1" vertex="1">
          <mxGeometry x="140" y="285" width="140" height="70" as="geometry" />
        </mxCell>
        <mxCell id="w8p1VNZIAzxRgyHxF2D--0" style="edgeStyle=orthogonalEdgeStyle;rounded=0;orthogonalLoop=1;jettySize=auto;html=1;exitX=0.5;exitY=0.5;exitDx=0;exitDy=0;exitPerimeter=0;entryX=0;entryY=0.5;entryDx=0;entryDy=0;" parent="KJiX2xMdJNfPIaYjWW22-1" source="w8p1VNZIAzxRgyHxF2D--1" target="w8p1VNZIAzxRgyHxF2D--3" edge="1">
          <mxGeometry relative="1" as="geometry" />
        </mxCell>
        <mxCell id="w8p1VNZIAzxRgyHxF2D--1" value="UA / ADMIN" style="shape=umlActor;verticalLabelPosition=bottom;verticalAlign=top;html=1;" parent="KJiX2xMdJNfPIaYjWW22-1" vertex="1">
          <mxGeometry x="60" y="425" width="30" height="60" as="geometry" />
        </mxCell>
        <mxCell id="w8p1VNZIAzxRgyHxF2D--2" value="" style="edgeStyle=orthogonalEdgeStyle;rounded=0;orthogonalLoop=1;jettySize=auto;html=1;" parent="KJiX2xMdJNfPIaYjWW22-1" source="w8p1VNZIAzxRgyHxF2D--3" target="w8p1VNZIAzxRgyHxF2D--5" edge="1">
          <mxGeometry relative="1" as="geometry" />
        </mxCell>
        <mxCell id="w8p1VNZIAzxRgyHxF2D--3" value="Accesso con credenziali" style="ellipse;whiteSpace=wrap;html=1;" parent="KJiX2xMdJNfPIaYjWW22-1" vertex="1">
          <mxGeometry x="140" y="420" width="140" height="70" as="geometry" />
        </mxCell>
        <mxCell id="w8p1VNZIAzxRgyHxF2D--4" value="" style="edgeStyle=orthogonalEdgeStyle;rounded=0;orthogonalLoop=1;jettySize=auto;html=1;" parent="KJiX2xMdJNfPIaYjWW22-1" source="w8p1VNZIAzxRgyHxF2D--5" target="w8p1VNZIAzxRgyHxF2D--6" edge="1">
          <mxGeometry relative="1" as="geometry" />
        </mxCell>
        <mxCell id="w8p1VNZIAzxRgyHxF2D--5" value="&lt;span style=&quot;caret-color: rgb(0, 0, 0); color: rgb(0, 0, 0); font-family: Helvetica; font-size: 12px; font-style: normal; font-variant-caps: normal; font-weight: 400; letter-spacing: normal; orphans: auto; text-align: center; text-indent: 0px; text-transform: none; white-space: normal; widows: auto; word-spacing: 0px; -webkit-text-stroke-width: 0px; background-color: rgb(251, 251, 251); text-decoration: none; display: inline !important; float: none;&quot;&gt;Accesso alla mappa&lt;/span&gt;" style="ellipse;whiteSpace=wrap;html=1;" parent="KJiX2xMdJNfPIaYjWW22-1" vertex="1">
          <mxGeometry x="330" y="420" width="140" height="70" as="geometry" />
        </mxCell>
        <mxCell id="FSM0-1uGqOyOMz-S6zU5-0" style="edgeStyle=orthogonalEdgeStyle;rounded=0;orthogonalLoop=1;jettySize=auto;html=1;exitX=0.5;exitY=0;exitDx=0;exitDy=0;entryX=0.5;entryY=1;entryDx=0;entryDy=0;" parent="KJiX2xMdJNfPIaYjWW22-1" source="w8p1VNZIAzxRgyHxF2D--6" target="w8p1VNZIAzxRgyHxF2D--7" edge="1">
          <mxGeometry relative="1" as="geometry" />
        </mxCell>
        <mxCell id="FSM0-1uGqOyOMz-S6zU5-1" value="&amp;lt;&amp;lt;include&amp;gt;&amp;gt;" style="edgeLabel;html=1;align=center;verticalAlign=middle;resizable=0;points=[];" parent="FSM0-1uGqOyOMz-S6zU5-0" connectable="0" vertex="1">
          <mxGeometry x="-0.2031" y="-1" relative="1" as="geometry">
            <mxPoint x="-13" as="offset" />
          </mxGeometry>
        </mxCell>
        <mxCell id="w8p1VNZIAzxRgyHxF2D--6" value="Applicazione di filtri" style="ellipse;whiteSpace=wrap;html=1;" parent="KJiX2xMdJNfPIaYjWW22-1" vertex="1">
          <mxGeometry x="520" y="420" width="140" height="70" as="geometry" />
        </mxCell>
        <mxCell id="w8p1VNZIAzxRgyHxF2D--7" value="Filtri di ricerca" style="ellipse;whiteSpace=wrap;html=1;" parent="KJiX2xMdJNfPIaYjWW22-1" vertex="1">
          <mxGeometry x="440" y="300" width="140" height="70" as="geometry" />
        </mxCell>
        <mxCell id="eQdDUOfJL-QdPGC6W_l7-6" value="" style="edgeStyle=orthogonalEdgeStyle;rounded=0;orthogonalLoop=1;jettySize=auto;html=1;" parent="KJiX2xMdJNfPIaYjWW22-1" source="eQdDUOfJL-QdPGC6W_l7-1" target="w8p1VNZIAzxRgyHxF2D--6" edge="1">
          <mxGeometry relative="1" as="geometry" />
        </mxCell>
        <mxCell id="eQdDUOfJL-QdPGC6W_l7-8" value="&amp;lt;&amp;lt;extend&amp;gt;&amp;gt;" style="edgeLabel;html=1;align=center;verticalAlign=middle;resizable=0;points=[];" parent="eQdDUOfJL-QdPGC6W_l7-6" connectable="0" vertex="1">
          <mxGeometry x="0.0564" relative="1" as="geometry">
            <mxPoint as="offset" />
          </mxGeometry>
        </mxCell>
        <mxCell id="eQdDUOfJL-QdPGC6W_l7-1" value="Filtro di posizione" style="ellipse;whiteSpace=wrap;html=1;" parent="KJiX2xMdJNfPIaYjWW22-1" vertex="1">
          <mxGeometry x="600" y="300" width="140" height="70" as="geometry" />
        </mxCell>
      </root>
    </mxGraphModel>
  </diagram>
  <diagram id="Jb4icukQDQpZQSj10lEZ" name="segnalazione">
    <mxGraphModel dx="1050" dy="557" grid="1" gridSize="10" guides="1" tooltips="1" connect="1" arrows="1" fold="1" page="1" pageScale="1" pageWidth="850" pageHeight="1100" math="0" shadow="0">
      <root>
        <mxCell id="0" />
        <mxCell id="1" parent="0" />
        <mxCell id="c5EaxC9nc6uCnvrfDXxL-6" value="" style="edgeStyle=orthogonalEdgeStyle;rounded=0;orthogonalLoop=1;jettySize=auto;html=1;" parent="1" source="c5EaxC9nc6uCnvrfDXxL-1" target="c5EaxC9nc6uCnvrfDXxL-2" edge="1">
          <mxGeometry relative="1" as="geometry" />
        </mxCell>
        <mxCell id="c5EaxC9nc6uCnvrfDXxL-1" value="UA / ADMIN" style="shape=umlActor;verticalLabelPosition=bottom;verticalAlign=top;html=1;" parent="1" vertex="1">
          <mxGeometry x="130" y="290" width="30" height="60" as="geometry" />
        </mxCell>
        <mxCell id="c5EaxC9nc6uCnvrfDXxL-7" value="" style="edgeStyle=orthogonalEdgeStyle;rounded=0;orthogonalLoop=1;jettySize=auto;html=1;" parent="1" source="c5EaxC9nc6uCnvrfDXxL-2" target="c5EaxC9nc6uCnvrfDXxL-3" edge="1">
          <mxGeometry relative="1" as="geometry" />
        </mxCell>
        <mxCell id="c5EaxC9nc6uCnvrfDXxL-2" value="Accesso con credenziali" style="ellipse;whiteSpace=wrap;html=1;" parent="1" vertex="1">
          <mxGeometry x="230" y="285" width="140" height="70" as="geometry" />
        </mxCell>
        <mxCell id="c5EaxC9nc6uCnvrfDXxL-8" value="" style="edgeStyle=orthogonalEdgeStyle;rounded=0;orthogonalLoop=1;jettySize=auto;html=1;" parent="1" source="c5EaxC9nc6uCnvrfDXxL-3" target="c5EaxC9nc6uCnvrfDXxL-4" edge="1">
          <mxGeometry relative="1" as="geometry" />
        </mxCell>
        <mxCell id="c5EaxC9nc6uCnvrfDXxL-3" value="Nuova segnalazione" style="ellipse;whiteSpace=wrap;html=1;" parent="1" vertex="1">
          <mxGeometry x="425" y="285" width="140" height="70" as="geometry" />
        </mxCell>
        <mxCell id="c5EaxC9nc6uCnvrfDXxL-4" value="Compilazione info necessarie" style="ellipse;whiteSpace=wrap;html=1;" parent="1" vertex="1">
          <mxGeometry x="620" y="285" width="140" height="70" as="geometry" />
        </mxCell>
        <mxCell id="c5EaxC9nc6uCnvrfDXxL-9" value="" style="edgeStyle=orthogonalEdgeStyle;rounded=0;orthogonalLoop=1;jettySize=auto;html=1;" parent="1" source="c5EaxC9nc6uCnvrfDXxL-5" target="c5EaxC9nc6uCnvrfDXxL-4" edge="1">
          <mxGeometry relative="1" as="geometry" />
        </mxCell>
        <mxCell id="c5EaxC9nc6uCnvrfDXxL-10" value="&amp;lt;&amp;lt;extend&amp;gt;&amp;gt;" style="edgeLabel;html=1;align=center;verticalAlign=middle;resizable=0;points=[];" parent="c5EaxC9nc6uCnvrfDXxL-9" connectable="0" vertex="1">
          <mxGeometry x="-0.0667" relative="1" as="geometry">
            <mxPoint as="offset" />
          </mxGeometry>
        </mxCell>
        <mxCell id="c5EaxC9nc6uCnvrfDXxL-5" value="Compilazione info facoltative" style="ellipse;whiteSpace=wrap;html=1;" parent="1" vertex="1">
          <mxGeometry x="620" y="400" width="140" height="70" as="geometry" />
        </mxCell>
      </root>
    </mxGraphModel>
  </diagram>
  <diagram id="z9UnPhaTTl8Tvp-1whoT" name="Background Active">
    <mxGraphModel dx="1050" dy="557" grid="1" gridSize="10" guides="1" tooltips="1" connect="1" arrows="1" fold="1" page="1" pageScale="1" pageWidth="850" pageHeight="1100" math="0" shadow="0">
      <root>
        <mxCell id="0" />
        <mxCell id="1" parent="0" />
        <mxCell id="d1XSrFjG7BdwgbRk3wAs-4" value="" style="edgeStyle=orthogonalEdgeStyle;rounded=0;orthogonalLoop=1;jettySize=auto;html=1;" parent="1" source="d1XSrFjG7BdwgbRk3wAs-1" target="d1XSrFjG7BdwgbRk3wAs-2" edge="1">
          <mxGeometry relative="1" as="geometry" />
        </mxCell>
        <mxCell id="d1XSrFjG7BdwgbRk3wAs-1" value="UA / ADMIN" style="shape=umlActor;verticalLabelPosition=bottom;verticalAlign=top;html=1;" parent="1" vertex="1">
          <mxGeometry x="150" y="320" width="30" height="60" as="geometry" />
        </mxCell>
        <mxCell id="d1XSrFjG7BdwgbRk3wAs-5" value="" style="edgeStyle=orthogonalEdgeStyle;rounded=0;orthogonalLoop=1;jettySize=auto;html=1;" parent="1" source="d1XSrFjG7BdwgbRk3wAs-2" target="d1XSrFjG7BdwgbRk3wAs-3" edge="1">
          <mxGeometry relative="1" as="geometry" />
        </mxCell>
        <mxCell id="d1XSrFjG7BdwgbRk3wAs-2" value="Accesso con credenziali" style="ellipse;whiteSpace=wrap;html=1;" parent="1" vertex="1">
          <mxGeometry x="240" y="315" width="140" height="70" as="geometry" />
        </mxCell>
        <mxCell id="d1XSrFjG7BdwgbRk3wAs-16" style="edgeStyle=orthogonalEdgeStyle;rounded=0;orthogonalLoop=1;jettySize=auto;html=1;exitX=0.5;exitY=0;exitDx=0;exitDy=0;entryX=0.5;entryY=1;entryDx=0;entryDy=0;" parent="1" source="d1XSrFjG7BdwgbRk3wAs-3" target="d1XSrFjG7BdwgbRk3wAs-7" edge="1">
          <mxGeometry relative="1" as="geometry">
            <Array as="points">
              <mxPoint x="510" y="300" />
              <mxPoint x="583" y="300" />
            </Array>
          </mxGeometry>
        </mxCell>
        <mxCell id="d1XSrFjG7BdwgbRk3wAs-17" value="&amp;lt;&amp;lt;include&amp;gt;&amp;gt;" style="edgeLabel;html=1;align=center;verticalAlign=middle;resizable=0;points=[];" parent="d1XSrFjG7BdwgbRk3wAs-16" connectable="0" vertex="1">
          <mxGeometry x="-0.0664" y="-1" relative="1" as="geometry">
            <mxPoint as="offset" />
          </mxGeometry>
        </mxCell>
        <mxCell id="d1XSrFjG7BdwgbRk3wAs-3" value="Background Active" style="ellipse;whiteSpace=wrap;html=1;" parent="1" vertex="1">
          <mxGeometry x="440" y="315" width="140" height="70" as="geometry" />
        </mxCell>
        <mxCell id="d1XSrFjG7BdwgbRk3wAs-11" style="edgeStyle=orthogonalEdgeStyle;rounded=0;orthogonalLoop=1;jettySize=auto;html=1;exitX=0.5;exitY=1;exitDx=0;exitDy=0;entryX=0.5;entryY=0;entryDx=0;entryDy=0;" parent="1" source="d1XSrFjG7BdwgbRk3wAs-6" target="d1XSrFjG7BdwgbRk3wAs-3" edge="1">
          <mxGeometry relative="1" as="geometry" />
        </mxCell>
        <mxCell id="d1XSrFjG7BdwgbRk3wAs-14" value="&amp;lt;&amp;lt;extend&amp;gt;&amp;gt;" style="edgeLabel;html=1;align=center;verticalAlign=middle;resizable=0;points=[];" parent="d1XSrFjG7BdwgbRk3wAs-11" connectable="0" vertex="1">
          <mxGeometry x="0.0096" relative="1" as="geometry">
            <mxPoint x="-2" as="offset" />
          </mxGeometry>
        </mxCell>
        <mxCell id="d1XSrFjG7BdwgbRk3wAs-6" value="Cellulare per notifiche SMS" style="ellipse;whiteSpace=wrap;html=1;" parent="1" vertex="1">
          <mxGeometry x="367" y="210" width="140" height="70" as="geometry" />
        </mxCell>
        <mxCell id="d1XSrFjG7BdwgbRk3wAs-7" value="Accesso alla posizione" style="ellipse;whiteSpace=wrap;html=1;" parent="1" vertex="1">
          <mxGeometry x="513" y="210" width="140" height="70" as="geometry" />
        </mxCell>
      </root>
    </mxGraphModel>
  </diagram>
  <diagram id="u_EAUVkT5Yw_jCjhJ3T_" name="Rimozione post">
    <mxGraphModel dx="1050" dy="557" grid="1" gridSize="10" guides="1" tooltips="1" connect="1" arrows="1" fold="1" page="1" pageScale="1" pageWidth="850" pageHeight="1100" math="0" shadow="0">
      <root>
        <mxCell id="0" />
        <mxCell id="1" parent="0" />
        <mxCell id="3o6y1M7khtPE_Wrb5NIS-1" value="" style="edgeStyle=orthogonalEdgeStyle;rounded=0;orthogonalLoop=1;jettySize=auto;html=1;" parent="1" source="3o6y1M7khtPE_Wrb5NIS-2" target="3o6y1M7khtPE_Wrb5NIS-4" edge="1">
          <mxGeometry relative="1" as="geometry" />
        </mxCell>
        <mxCell id="3o6y1M7khtPE_Wrb5NIS-2" value="UA / ADMIN" style="shape=umlActor;verticalLabelPosition=bottom;verticalAlign=top;html=1;" parent="1" vertex="1">
          <mxGeometry x="130" y="290" width="30" height="60" as="geometry" />
        </mxCell>
        <mxCell id="3o6y1M7khtPE_Wrb5NIS-3" value="" style="edgeStyle=orthogonalEdgeStyle;rounded=0;orthogonalLoop=1;jettySize=auto;html=1;" parent="1" source="3o6y1M7khtPE_Wrb5NIS-4" target="3o6y1M7khtPE_Wrb5NIS-6" edge="1">
          <mxGeometry relative="1" as="geometry" />
        </mxCell>
        <mxCell id="3o6y1M7khtPE_Wrb5NIS-4" value="Accesso con credenziali" style="ellipse;whiteSpace=wrap;html=1;" parent="1" vertex="1">
          <mxGeometry x="230" y="285" width="140" height="70" as="geometry" />
        </mxCell>
        <mxCell id="3o6y1M7khtPE_Wrb5NIS-5" value="" style="edgeStyle=orthogonalEdgeStyle;rounded=0;orthogonalLoop=1;jettySize=auto;html=1;" parent="1" source="3o6y1M7khtPE_Wrb5NIS-6" target="3o6y1M7khtPE_Wrb5NIS-7" edge="1">
          <mxGeometry relative="1" as="geometry" />
        </mxCell>
        <mxCell id="3o6y1M7khtPE_Wrb5NIS-6" value="Cronologia post" style="ellipse;whiteSpace=wrap;html=1;" parent="1" vertex="1">
          <mxGeometry x="425" y="285" width="140" height="70" as="geometry" />
        </mxCell>
        <mxCell id="3o6y1M7khtPE_Wrb5NIS-7" value="Elimina post" style="ellipse;whiteSpace=wrap;html=1;" parent="1" vertex="1">
          <mxGeometry x="620" y="285" width="140" height="70" as="geometry" />
        </mxCell>
      </root>
    </mxGraphModel>
  </diagram>
  <diagram name="Cronologia Segnalazioni" id="wxPfghfyvgUrHEl9GELo">
    <mxGraphModel dx="1050" dy="557" grid="1" gridSize="10" guides="1" tooltips="1" connect="1" arrows="1" fold="1" page="1" pageScale="1" pageWidth="850" pageHeight="1100" math="0" shadow="0">
      <root>
        <mxCell id="lZ_1uWtPs94HVyArvG4J-0" />
        <mxCell id="lZ_1uWtPs94HVyArvG4J-1" parent="lZ_1uWtPs94HVyArvG4J-0" />
        <mxCell id="lZ_1uWtPs94HVyArvG4J-2" value="" style="edgeStyle=orthogonalEdgeStyle;rounded=0;orthogonalLoop=1;jettySize=auto;html=1;" edge="1" parent="lZ_1uWtPs94HVyArvG4J-1" source="lZ_1uWtPs94HVyArvG4J-3" target="lZ_1uWtPs94HVyArvG4J-5">
          <mxGeometry relative="1" as="geometry" />
        </mxCell>
        <mxCell id="lZ_1uWtPs94HVyArvG4J-3" value="UA / ADMIN" style="shape=umlActor;verticalLabelPosition=bottom;verticalAlign=top;html=1;" vertex="1" parent="lZ_1uWtPs94HVyArvG4J-1">
          <mxGeometry x="130" y="290" width="30" height="60" as="geometry" />
        </mxCell>
        <mxCell id="lZ_1uWtPs94HVyArvG4J-4" value="" style="edgeStyle=orthogonalEdgeStyle;rounded=0;orthogonalLoop=1;jettySize=auto;html=1;" edge="1" parent="lZ_1uWtPs94HVyArvG4J-1" source="lZ_1uWtPs94HVyArvG4J-5" target="lZ_1uWtPs94HVyArvG4J-7">
          <mxGeometry relative="1" as="geometry" />
        </mxCell>
        <mxCell id="lZ_1uWtPs94HVyArvG4J-5" value="Accesso con credenziali" style="ellipse;whiteSpace=wrap;html=1;" vertex="1" parent="lZ_1uWtPs94HVyArvG4J-1">
          <mxGeometry x="230" y="285" width="140" height="70" as="geometry" />
        </mxCell>
        <mxCell id="lZ_1uWtPs94HVyArvG4J-7" value="Cronologia segnalazioni" style="ellipse;whiteSpace=wrap;html=1;" vertex="1" parent="lZ_1uWtPs94HVyArvG4J-1">
          <mxGeometry x="425" y="285" width="140" height="70" as="geometry" />
        </mxCell>
      </root>
    </mxGraphModel>
  </diagram>
  <diagram id="riCNZxHwPVVq3ujpkA3m" name="Segnalazione post">
    <mxGraphModel dx="1050" dy="557" grid="1" gridSize="10" guides="1" tooltips="1" connect="1" arrows="1" fold="1" page="1" pageScale="1" pageWidth="850" pageHeight="1100" math="0" shadow="0">
      <root>
        <mxCell id="0" />
        <mxCell id="1" parent="0" />
        <mxCell id="gMNIYHsaeUdz0lvF4pqw-1" value="" style="edgeStyle=orthogonalEdgeStyle;rounded=0;orthogonalLoop=1;jettySize=auto;html=1;" parent="1" source="gMNIYHsaeUdz0lvF4pqw-2" target="gMNIYHsaeUdz0lvF4pqw-4" edge="1">
          <mxGeometry relative="1" as="geometry" />
        </mxCell>
        <mxCell id="gMNIYHsaeUdz0lvF4pqw-2" value="UA / ADMIN" style="shape=umlActor;verticalLabelPosition=bottom;verticalAlign=top;html=1;" parent="1" vertex="1">
          <mxGeometry x="130" y="290" width="30" height="60" as="geometry" />
        </mxCell>
        <mxCell id="gMNIYHsaeUdz0lvF4pqw-3" value="" style="edgeStyle=orthogonalEdgeStyle;rounded=0;orthogonalLoop=1;jettySize=auto;html=1;" parent="1" source="gMNIYHsaeUdz0lvF4pqw-4" target="gMNIYHsaeUdz0lvF4pqw-6" edge="1">
          <mxGeometry relative="1" as="geometry" />
        </mxCell>
        <mxCell id="gMNIYHsaeUdz0lvF4pqw-4" value="Accesso con credenziali" style="ellipse;whiteSpace=wrap;html=1;" parent="1" vertex="1">
          <mxGeometry x="230" y="285" width="140" height="70" as="geometry" />
        </mxCell>
        <mxCell id="gMNIYHsaeUdz0lvF4pqw-6" value="Segnala post" style="ellipse;whiteSpace=wrap;html=1;" parent="1" vertex="1">
          <mxGeometry x="425" y="285" width="140" height="70" as="geometry" />
        </mxCell>
      </root>
    </mxGraphModel>
  </diagram>
</mxfile>
